<?xml version="1.0" encoding="UTF-8"?>
<svg data-bbox="0.114 0.011 939.802 295.989" viewBox="0 0 940 296" xmlns="http://www.w3.org/2000/svg" data-type="color">
    <g>
        <path d="M272.2 156.1c-.1-5.8-.6-11.8-1.6-17.9-2.2-14-6.6-27.5-13-40.1-6.7-13.2-15.5-25.1-26.1-35.5-10.7-10.5-23.1-19.2-36.7-25.7-3.6-7-8.1-13-13.4-17.9C165.5 4.3 146.8-1.5 126 2c-21.3 3.5-37.5 15.3-47.9 35.1-14.6 7-27.7 16.5-39 28.2C29.2 75.6 21 87.2 14.7 100c-8.3 17-12.9 35.3-13.6 54.3-.5 11.4.5 22.8 3 33.7 6 27.2 19.4 50.7 39.6 70 10.4 9.9 22.2 18 35.3 24.1 18.2 8.6 37.5 12.9 57.6 12.9 7.3 0 14.7-.6 22.2-1.7 6.2-1 12.5-2.5 18.5-4.5 35.8-11.9 62.7-34.7 79.9-67.7 9.9-18.9 14.9-39.7 14.9-61.7v-1c.1-.8.1-1.5.1-2.3zm-7 3.3c0 20.9-4.7 40.6-14.1 58.4-16.4 31.3-41.9 52.9-75.9 64.2-5.7 1.9-11.5 3.3-17.4 4.2-26.7 4.1-52.2.5-75.8-10.6-12.4-5.8-23.6-13.5-33.4-22.8-19.2-18.3-31.9-40.6-37.6-66.4-2.3-10.3-3.2-21-2.8-31.9.7-18.1 5.1-35.4 12.9-51.5C27 91 34.8 79.9 44.2 70.2 54.9 59.1 67.4 50 81.3 43.3c1.2-.6 2.3-1.6 2.9-2.8C93.5 22.7 108 12 127.1 8.9c3.5-.6 6.9-.9 10.2-.9 14.5 0 27.7 5.4 39.3 16 4.8 4.4 8.9 10 12.2 16.4.6 1.1 1.5 2 2.6 2.5 13.1 6.2 25 14.5 35.2 24.6 10 9.8 18.4 21.2 24.7 33.7 6.1 11.9 10.2 24.7 12.3 38 .9 5.8 1.4 11.5 1.5 16.9v2.1l.1 1.2z" fill="#157ee5" data-color="1"/>
        <path d="M136.6 296c-20.2 0-39.7-4.4-58-13-13.1-6.2-25.1-14.3-35.5-24.3-20.4-19.4-33.8-43.1-39.9-70.5-2.4-11-3.4-22.4-3-33.9.8-19.2 5.4-37.6 13.7-54.7 6.3-12.9 14.5-24.6 24.5-35 11.3-11.7 24.4-21.2 39-28.3C87.9 16.4 104.2 4.5 125.8 1c21.2-3.5 40.1 2.3 56.3 17.2 5.4 4.9 9.9 11 13.5 17.9 13.6 6.6 25.9 15.2 36.6 25.7 10.7 10.5 19.5 22.5 26.3 35.8 6.5 12.7 10.9 26.3 13.1 40.4 1 6.1 1.5 12.2 1.6 18.1v3.3c0 22.2-5 43.1-15 62.2-17.4 33.2-44.5 56.2-80.5 68.1-6.1 2-12.4 3.6-18.7 4.5-7.5 1.2-15.1 1.8-22.4 1.8zm.8-294c-3.7 0-7.5.3-11.3.9C105.1 6.4 89.2 18 79 37.5l-.2.3-.3.2C64 45 51 54.4 39.8 66c-9.8 10.2-18 21.8-24.2 34.5-8.2 16.9-12.8 35-13.5 53.9-.4 11.3.5 22.6 2.9 33.4 6 27 19.2 50.4 39.3 69.5 10.3 9.8 22.1 17.8 35 23.9 18 8.5 37.3 12.8 57.2 12.8 7.2 0 14.7-.6 22.1-1.7 6.2-.9 12.4-2.4 18.4-4.4 35.5-11.8 62.2-34.4 79.4-67.2 9.8-18.8 14.8-39.4 14.8-61.3v-3.3c-.1-5.8-.6-11.7-1.6-17.8-2.2-13.9-6.6-27.3-12.9-39.8-6.7-13.1-15.4-24.9-25.9-35.2-10.6-10.4-22.9-19-36.4-25.5l-.3-.1-.2-.3c-3.5-6.9-8-12.8-13.2-17.7C168 7.9 153.4 2 137.4 2zm-.8 286.9c-19.2 0-37.7-4.1-55.1-12.3-12.5-5.9-23.8-13.6-33.7-23-19.4-18.4-32.1-40.9-37.9-66.9-2.3-10.4-3.3-21.2-2.8-32.1.7-18.2 5.1-35.7 13-51.9 6-12.2 13.8-23.4 23.3-33.2 10.8-11.2 23.4-20.3 37.5-27 1-.5 1.9-1.3 2.5-2.4C92.9 22 107.5 11.2 127 8c18.8-3.1 35.9 2.1 50.4 15.4 4.9 4.5 9.1 10.1 12.4 16.7.5.9 1.2 1.6 2.1 2.1 13.2 6.3 25.1 14.6 35.5 24.8 10.1 9.9 18.5 21.3 24.9 33.9 6.1 12 10.3 24.9 12.4 38.3.9 5.8 1.4 11.6 1.5 17.1v3.2c0 21.1-4.8 40.9-14.2 58.9-16.5 31.6-42.2 53.3-76.5 64.7-5.7 1.9-11.6 3.3-17.5 4.2-7.3 1.1-14.4 1.6-21.4 1.6zm.7-279.8c-3.3 0-6.7.3-10.1.8C108.5 13 94.3 23.4 85.1 41c-.7 1.4-1.9 2.6-3.4 3.3-13.8 6.6-26.2 15.6-36.9 26.6-9.3 9.7-17 20.7-22.9 32.7-7.8 16-12.1 33.2-12.8 51.1-.4 10.7.5 21.4 2.8 31.6 5.7 25.6 18.2 47.8 37.3 65.9 9.7 9.3 20.9 16.9 33.2 22.6 23.4 11 48.7 14.5 75.2 10.5 5.8-.9 11.6-2.3 17.2-4.2 33.7-11.2 59.1-32.7 75.3-63.8 9.3-17.7 14-37.3 14-58v-3.1c-.1-5.4-.6-11.1-1.5-16.8-2.1-13.2-6.2-25.9-12.2-37.7-6.3-12.4-14.6-23.6-24.5-33.4-10.2-10-22-18.2-35-24.4-1.3-.6-2.4-1.7-3-3-3.2-6.3-7.2-11.7-11.9-16.1-11.4-10.4-24.4-15.7-38.7-15.7z" fill="#157ee5" data-color="1"/>
        <path d="M714.5 219.3h-.7c-9-.2-15.3-5.6-16.8-14.5-.4-2.1-.5-4.4-.5-6.8V62.1c0-3.2.4-6.2 1.1-8.9 1.8-6.8 6.7-11.2 13.8-12.2.2 0 .3-.1.5-.1.2-.1.4-.1.6-.2l.5-.1h4l.7.3c.1.1.2.1.3.2 8.8 1.6 13.8 7.1 14.7 16 .2 1.8.3 3.7.3 5.9v134.3c0 3.3-.2 5.9-.7 8.3-2 8.9-8.2 13.7-17.8 13.7zM714 47.8c-.4.1-.9.3-1.6.4-4.4.6-6.9 2.8-8 7-.6 2.1-.8 4.5-.8 7.1-.1 48.4 0 95.8 0 135.9 0 2 .1 3.9.4 5.6.9 5.5 4.4 8.5 10 8.6 6.6.2 10.1-2.3 11.3-8.1.4-1.9.6-4.1.6-6.9V63.2c0-2-.1-3.7-.2-5.2-.6-5.9-3.3-8.8-9.2-9.8-.4-.1-.8-.2-1-.3H714zm3.6-6.7z" fill="#157ee5" data-color="1"/>
        <path d="M714.5 220.3h-.7c-9.5-.2-16.2-6-17.8-15.3-.4-2.2-.5-4.5-.5-6.9V62.2c0-3.3.4-6.3 1.1-9.1 1.9-7.3 7.1-11.8 14.6-12.9.1 0 .1 0 .2-.1h.1c.2-.1.4-.1.6-.2l.7-.2h4.2l.9.4c.1 0 .2.1.3.1 9.2 1.7 14.5 7.6 15.4 16.9.2 1.8.3 3.8.3 6v134.3c0 3.4-.2 6.1-.7 8.5-2 9.3-8.6 14.4-18.7 14.4zm-1.4-178.6l-.3.1c-.2.1-.4.1-.6.2h-.1c-.2.1-.3.1-.5.1-6.7 1-11.3 5-13 11.4-.7 2.6-1 5.5-1 8.6-.1 48.6 0 96 0 135.9 0 2.3.2 4.6.5 6.6 1.4 8.4 7.3 13.5 15.8 13.7h.6c9.2 0 14.9-4.5 16.7-12.9.5-2.3.7-4.9.7-8.1V63c0-2.1-.1-4-.2-5.8-.8-8.4-5.6-13.6-13.9-15.1l-.3-.1v-.1c-.1 0-.2-.1-.2-.1l-.5-.2h-3.7zm4.4.3zm-2.9 171.3h-.6c-6.1-.1-10-3.5-11-9.4-.3-1.8-.5-3.7-.5-5.8V62.2c0-2.7.3-5.1.9-7.4 1.2-4.5 4-7 8.8-7.7.6-.1 1-.2 1.4-.3h2l.2.1c.3.1.5.2.8.2 6.3 1.1 9.4 4.4 10 10.7.2 1.6.2 3.3.2 5.3v134.2c0 2.9-.2 5.1-.6 7.1-1.2 6.1-4.9 8.9-11.6 8.9zm-.5-164.5c-.4.1-.9.3-1.6.4-4 .6-6.2 2.5-7.1 6.2-.5 2.1-.8 4.4-.8 6.9-.1 48.1 0 95.6 0 135.9 0 2 .1 3.8.4 5.5.8 5 3.9 7.7 9 7.8 6.1.1 9.2-2 10.3-7.3.4-1.8.6-3.9.6-6.6V63.4c0-1.9-.1-3.6-.2-5.1-.5-5.4-2.9-8-8.4-8.9-.4-.1-.7-.2-1.1-.3h-1.1z" fill="#157ee5" data-color="1"/>
        <path d="M822 219.4c-1.3 0-2.6-.1-3.8-.3-6.7-.9-11.5-4.7-13.8-10.5-5.3 6.3-12.8 10-21.9 10.6-4.5.3-9.3-.1-13.7-1.2-11.1-2.8-18.6-10.6-21.6-22.6-2.7-10.9-2.5-22.1.7-33.3 2.8-9.8 9.3-17.5 19.6-22.9 4.6-2.4 9.2-4.9 13.8-7.3 4.1-2.2 8.2-4.3 12.3-6.5 1.2-.6 3-1.6 4.4-2.8 4-3.3 5.1-8.6 2.9-13.3-1.4-2.9-3.6-4.2-6.8-4.2-5.8 0-7.7 1.7-8.8 4.3-.7 1.7-1.3 3.7-1.7 6.5-1.3 7.9-5.2 12-12.9 13.5-5.9 1.2-11.4.3-16.3-2.4-4.8-2.7-7.4-7.1-7.4-12.7-.1-18 10.7-31.5 28.9-36.1 13.1-3.3 26.7-2.8 40.4 1.5 12.5 3.9 19.9 13.3 21.4 27.2.4 3.7.6 7.7.6 12.6v22.6c0 12.8 0 26 .1 39 .1 7.1.8 14.3 1.4 19.8 1.5 13.4-6.6 17.5-13.7 18.5-1.4-.1-2.8 0-4.1 0zm-17.9-23.5l5.6 1 .2 3.4c0 .4.1.9.1 1.3.5 6.3 3.5 9.7 9.2 10.5 1.9.3 3.9.3 5.9 0 6.4-.9 8.5-3.8 7.7-10.7-.6-5.6-1.4-13-1.5-20.5-.1-13-.1-26.3-.1-39.1v-22.5c0-4.7-.2-8.4-.6-11.9-1.2-11.2-6.6-18.2-16.5-21.3-12.5-3.9-24.8-4.4-36.6-1.4-14.9 3.8-23.7 14.7-23.6 29.3 0 3.1 1.2 5.1 3.9 6.6 3.4 1.9 7.2 2.5 11.4 1.6 4.8-.9 6.5-2.7 7.3-7.7.6-3.4 1.3-5.9 2.2-8.1 3.7-8.5 12.4-8.5 15.3-8.5 6 0 10.5 2.8 13.1 8.2 3.7 7.7 1.8 16.4-4.7 21.8-2 1.6-4.1 2.9-5.6 3.6-4.1 2.2-8.3 4.4-12.4 6.5-4.6 2.4-9.2 4.8-13.7 7.2-8.6 4.6-13.9 10.7-16.1 18.6-2.8 10-3 20-.6 29.7 2.4 9.4 7.9 15.3 16.5 17.4 3.7.9 7.7 1.3 11.5 1 9.4-.6 16-4.8 20.2-12.8.2-.3.4-.7.6-1l1.3-2.2zm-13.7.4c-1.2 0-2.3-.1-3.5-.5-8.5-2.3-9.8-10.2-10.2-12.8-2.2-12.8 1.6-22.7 11.3-29.5 3.4-2.4 6.9-4.9 10.3-7.4l6.4-4.7 4.8 2.6-.1 2.2c-.1 2.8-.2 5.7-.3 8.5-.2 7.3-.5 14.9-1.1 22.4-.4 4.3-2.5 8.3-4.6 11.7-2.9 4.7-7.9 7.5-13 7.5zm11.7-44.2c-3.3 2.4-6.7 4.9-10.1 7.2-7.4 5.2-10.1 12.4-8.4 22.6.9 5.3 3 6.6 5.1 7.2 3.1.8 6.7-.8 8.6-3.9 1.5-2.5 3.3-5.8 3.6-8.6.6-7.3.9-14.7 1.1-22 0-.8.1-1.7.1-2.5z" fill="#157ee5" data-color="1"/>
        <path d="M822 220.4c-1.4 0-2.7-.1-4-.3-6.4-.9-11.3-4.3-13.9-9.7-5.4 5.8-12.8 9.2-21.6 9.8-4.6.3-9.5-.1-14-1.2-11.5-2.9-19.2-10.9-22.3-23.3-2.8-11-2.6-22.4.7-33.8 2.8-10 9.6-18 20.1-23.6 4.5-2.4 9.1-4.8 13.7-7.2l.1-.1c4.1-2.2 8.2-4.3 12.3-6.5 1.2-.6 2.9-1.6 4.3-2.7 3.6-3 4.7-7.9 2.6-12.1-1.2-2.5-3-3.6-5.8-3.6h-.1c-5.8 0-7.1 1.8-7.9 3.7-.7 1.6-1.2 3.5-1.7 6.2-1.4 8.3-5.6 12.7-13.7 14.3-6.2 1.2-11.9.4-17-2.5-5.2-2.9-7.9-7.6-7.9-13.6-.1-18.5 11-32.3 29.7-37.1 13.2-3.4 27-2.9 41 1.5 12.9 4 20.6 13.8 22.1 28.1.4 3.7.6 7.7.6 12.7V142c0 12.8 0 26 .1 39 .1 7.1.8 14.2 1.4 19.7 1.3 11.1-3.9 18.1-14.6 19.6-1.4 0-2.8.1-4.2.1zm-17.3-13.8l.6 1.6c2.2 5.6 6.7 9 13 9.9 2.4.3 5.1.3 7.6 0 9.7-1.4 14.1-7.2 12.9-17.4-.6-5.5-1.4-12.7-1.4-19.9-.1-13-.1-26.2-.1-39v-22.6c0-4.9-.2-8.8-.6-12.5-1.4-13.5-8.6-22.6-20.7-26.4-13.6-4.3-27-4.8-39.9-1.5-17.7 4.5-28.3 17.7-28.2 35.2 0 5.2 2.4 9.3 6.9 11.8 4.7 2.7 9.9 3.4 15.6 2.3 7.3-1.4 10.8-5.1 12.1-12.7.5-2.9 1-5 1.8-6.7 1.5-3.4 4.3-4.9 9.7-4.9h.1c3.6 0 6.1 1.6 7.6 4.8 2.5 5.1 1.2 10.9-3.1 14.5-1.5 1.3-3.4 2.3-4.6 3-4.1 2.2-8.2 4.3-12.4 6.5l-.1.1c-4.6 2.4-9.1 4.8-13.6 7.2-10 5.3-16.4 12.8-19.1 22.3-3.1 11.1-3.3 22.1-.6 32.8 2.9 11.6 10.1 19.1 20.9 21.8 4.3 1.1 8.9 1.5 13.3 1.2 8.9-.6 16-4.1 21.2-10.2l1.1-1.2zm17.3 6.7c-1 0-2-.1-3-.2-6.1-.9-9.5-4.7-10-11.4 0-.4-.1-.9-.1-1.3l-.2-2.6-4.1-.7-1.1 1.8c-.2.3-.4.6-.6 1-4.4 8.3-11.2 12.6-21 13.3-3.9.3-8-.1-11.8-1-8.9-2.2-14.7-8.3-17.2-18.2-2.5-9.8-2.3-20 .6-30.2 2.3-8.2 7.7-14.5 16.6-19.2 4.5-2.4 9.1-4.8 13.6-7.2l.2-.1c4.1-2.2 8.3-4.3 12.4-6.5 1.4-.8 3.6-2 5.5-3.5 6.2-5.1 7.9-13.4 4.5-20.6-2.4-5-6.6-7.6-12.2-7.6-2.7 0-11 0-14.4 7.9-.9 2.2-1.6 4.6-2.2 7.9-.9 5.4-2.9 7.5-8.1 8.5-4.5.9-8.5.3-12.1-1.8-3-1.7-4.3-4-4.4-7.5-.1-15 9-26.3 24.4-30.2 11.9-3.1 24.4-2.6 37.1 1.4 10.3 3.2 15.9 10.5 17.2 22.1.4 3.5.5 7.3.6 12v22.5c0 12.8 0 26 .1 39.1.1 7.4.8 14.8 1.5 20.4.9 7.4-1.6 10.8-8.6 11.8-1.1 0-2.2.1-3.2.1zm-18.4-18.5l7 1.3.3 4.2c0 .4 0 .9.1 1.3.5 5.8 3.1 8.9 8.3 9.6 1.8.3 3.8.2 5.6 0 5.9-.8 7.6-3.3 6.9-9.6-.7-5.7-1.4-13.1-1.5-20.6-.1-13.1-.1-26.3-.1-39.1v-22.5c0-4.6-.2-8.4-.5-11.8-1.1-10.8-6.3-17.4-15.8-20.4-12.3-3.9-24.5-4.3-36-1.4-14.4 3.7-23 14.3-22.9 28.3 0 2.7 1 4.4 3.3 5.7 3.2 1.8 6.7 2.3 10.8 1.5 4.4-.9 5.7-2.3 6.5-6.9.6-3.5 1.3-6 2.3-8.4 4-9.1 13.1-9.1 16.2-9.1 6.5 0 11.3 3 14.1 8.8 3.9 8.1 1.9 17.3-5 23-2 1.7-4.3 2.9-5.8 3.8-4.1 2.2-8.3 4.4-12.4 6.5l-.2.1c-4.5 2.4-9.1 4.7-13.6 7.2-8.3 4.4-13.4 10.3-15.6 18-2.8 9.9-3 19.7-.6 29.2 2.3 9 7.6 14.7 15.7 16.7 3.6.9 7.4 1.2 11.2 1 9-.6 15.3-4.6 19.3-12.3.2-.4.4-.7.6-1.1l1.8-3zm-13.2 2.5c-1.3 0-2.5-.2-3.7-.5-9.1-2.4-10.5-10.9-11-13.6-2.2-13.2 1.7-23.5 11.7-30.5 3.4-2.4 6.9-4.9 10.3-7.4l6.9-5 5.9 3.2-.1 2.8-.3 8.1v.4c-.2 7.3-.5 14.9-1.1 22.4-.4 4.5-2.6 8.6-4.7 12.1-3.1 5-8.4 8-13.9 8zm14.3-54.6l-5.9 4.3c-3.4 2.4-6.8 5-10.3 7.4-9.3 6.6-12.9 16.2-10.9 28.5.4 2.5 1.7 9.9 9.5 12 1 .3 2.1.4 3.2.4 4.8 0 9.4-2.7 12.1-7 2-3.3 4.1-7.2 4.4-11.2.6-7.4.9-15 1.1-22.3v-.4c.1-2.7.2-5.4.3-8.2l.1-1.6-3.6-1.9zm-14.3 47.6c-.6 0-1.3-.1-1.9-.2-2.3-.6-4.8-2.1-5.8-8-1.8-10.6 1-18.1 8.8-23.6 3.5-2.4 7-5 10.1-7.2l1.7-1.2-.1 4.6c-.2 7.2-.5 14.7-1.1 22-.3 3-2.1 6.4-3.7 9-2 2.8-5 4.6-8 4.6zm10.6-36.2c-2.7 1.9-5.6 4-8.4 6.1-7.1 5-9.6 11.9-8 21.6.8 5 2.7 5.9 4.4 6.4 2.7.7 5.8-.7 7.5-3.5 1.5-2.4 3.2-5.5 3.4-8.2.6-7.2.9-14.7 1.1-21.9v-.5z" fill="#157ee5" data-color="1"/>
        <path d="M873.2 254.2c-2.1 0-4.2-.1-6.2-.4-4.5-.6-8.3-3.7-10.4-8.3-2.2-5-1.8-10.7 1.1-14.8 3-4.3 7.8-5 10.4-5.4.7-.1 1.5-.2 2.3-.3.7-.1 1.4-.1 2.1-.3 2.1-.3 2.2-1 2.2-2.2.1-2.9-.1-5.3-.6-7.3-5.8-24.6-11.6-49.1-17.4-73.7-3.2-13.4-6.3-26.8-9.5-40.2-.7-2.8-1.1-5.2-1.3-7.6-.8-8.9 4.3-15.7 13-17.2 3-.5 6.2-.6 9.4 0 6.9 1.1 11.5 5.6 12.8 12.7 3.6 19.2 7.2 38.5 10.8 57.7l1.6 8.8L904.1 92c.1-.9.4-1.8.7-2.9 1.6-5.5 5.1-9.6 9.7-11.8 4.7-2.2 10.1-2.1 15.4.3 6.9 3 10.3 9.8 8.7 17.3-2.2 10.3-4.6 20.6-7 30.6l-1.4 5.8c-7.2 30.7-14.6 62.4-22 93.5-.9 3.9-2.3 8.2-4.2 13-3.7 9.2-10.6 14.6-20.2 15.6-3.3.5-6.9.8-10.6.8zm-9.6-171c-1.2 0-2.4.1-3.5.3-5.1.9-7.7 4.4-7.2 9.7.2 2 .5 4.1 1.1 6.5 3.2 13.4 6.3 26.8 9.5 40.2 5.8 24.6 11.6 49.1 17.4 73.7.6 2.6.9 5.6.8 9.1-.2 4.9-3 8.1-8.1 8.9-.8.1-1.7.2-2.5.3-.6.1-1.3.1-1.9.2-2.9.4-4.6 1-5.7 2.5-1.5 2.1-1.6 5.2-.4 7.9 1 2.3 2.8 3.9 4.8 4.1 5 .7 10.5.2 15.2-.3 6.9-.7 11.8-4.5 14.4-11.2 1.8-4.5 3.1-8.4 3.9-12 7.4-31.1 14.8-62.8 22-93.5l1.4-5.8c2.3-10 4.8-20.3 6.9-30.5.9-4.2-.8-7.7-4.6-9.4-3.4-1.5-6.8-1.6-9.6-.3s-4.9 3.9-5.9 7.4c-.2.8-.4 1.4-.5 2l-12 71.7-1.2 7.2-1.1 6.3-6.3-.2-.7-3.6c-.1-.7-.3-1.3-.4-2l-4.5-24.2c-3.6-19.2-7.2-38.5-10.8-57.7-.8-4.1-3.1-6.5-7-7.1-1.1-.1-2.3-.2-3.5-.2z" fill="#157ee5" data-color="1"/>
        <path d="M873.2 255.2c-2.3 0-4.4-.1-6.4-.4-4.8-.6-9-4-11.1-8.9-2.4-5.4-1.9-11.4 1.2-15.8 3.2-4.6 8.3-5.4 11-5.8.8-.1 1.5-.2 2.3-.3.7-.1 1.4-.1 2-.2 1.3-.2 1.3-.3 1.4-1.2.1-2.8-.1-5.1-.5-7.1-5.8-24.6-11.7-49.6-17.4-73.7-3.2-13.4-6.3-26.8-9.5-40.2-.7-2.8-1.1-5.3-1.3-7.7-.8-9.5 4.6-16.6 13.8-18.3 3.1-.6 6.5-.6 9.8 0 7.4 1.2 12.2 6 13.6 13.5 3.6 19.2 7.1 38.3 10.7 57.5l.7 3.5 9.7-58.2c.2-.9.4-1.9.7-3 1.7-5.7 5.3-10.1 10.2-12.4 4.9-2.3 10.7-2.2 16.2.3 7.3 3.2 10.9 10.5 9.2 18.4-2.2 10.2-4.6 20.5-6.9 30.5l-1.6 7c-7.1 30.3-14.4 61.7-21.8 92.6-.9 4-2.3 8.3-4.3 13.1-3.8 9.6-11.1 15.2-21.1 16.2-3.3.3-6.9.6-10.6.6zm-9.6-178c-1.6 0-3.1.1-4.6.4-8.1 1.5-12.9 7.8-12.2 16.2.2 2.3.6 4.7 1.2 7.4 3.2 13.4 6.3 26.8 9.5 40.2 5.7 24.2 11.6 49.1 17.4 73.7.5 2.1.7 4.6.6 7.6-.1 1.7-.6 2.7-3 3.1-.7.1-1.4.2-2 .3-.8.1-1.6.2-2.3.3-2.4.4-7 1.1-9.7 5-2.7 3.8-3.1 9.1-1 13.8 1.9 4.3 5.5 7.2 9.6 7.7 1.9.2 3.9.4 6.1.4 3.6 0 7.2-.3 10.5-.7 9.2-1 15.9-6.2 19.4-15 1.9-4.8 3.3-9 4.2-12.8 7.3-30.8 14.7-62.2 21.8-92.5l1.6-7c2.3-10 4.7-20.3 6.9-30.4 1.5-7-1.7-13.3-8.1-16.2-5-2.2-10.2-2.3-14.6-.3-4.4 2-7.6 6-9.2 11.1-.3 1-.5 1.9-.7 2.8l-11.6 69.4-2.7-14.6c-3.6-19.2-7.1-38.3-10.7-57.5-1.2-6.7-5.5-10.9-12-11.9-1.4-.4-2.9-.5-4.4-.5zm9.6 170.9c-1.8 0-3.7-.1-5.4-.3-2.3-.3-4.4-2.1-5.6-4.7-1.3-3.1-1.1-6.6.5-8.9 1.3-1.8 3.3-2.4 6.4-2.9.6-.1 1.2-.2 1.9-.2 1-.1 1.8-.2 2.5-.3 4.6-.8 7.1-3.5 7.3-7.9.1-3.4-.1-6.3-.7-8.9-5.8-24.6-11.7-49.6-17.4-73.7l-.1-.6c-3.1-13.2-6.2-26.4-9.4-39.5-.6-2.5-1-4.7-1.1-6.7-.5-5.8 2.4-9.7 8.1-10.8 2.3-.4 4.9-.4 7.4 0 4.3.7 7 3.3 7.8 7.9 3.6 19.2 7.2 38.5 10.8 57.7l4.5 24.2c.1.7.3 1.3.4 2l.6 2.9 4.6.2.9-5.4 1.2-7.2 12-71.7c.1-.6.3-1.4.5-2.2 1.1-3.8 3.4-6.6 6.4-8 3.1-1.4 6.8-1.3 10.4.3 4.3 1.9 6.2 5.8 5.2 10.5-2.2 10.2-4.6 20.5-6.9 30.5l-1.4 5.9c-7.1 30.5-14.5 62.1-22 93.5-.9 3.6-2.2 7.6-4 12.1-2.8 7.1-7.9 11-15.3 11.8-3.2.1-6.7.4-10.1.4zm-9.6-163.9c-1.2 0-2.3.1-3.3.3-4.6.8-6.8 3.8-6.4 8.6.2 1.9.5 4 1.1 6.4 3.1 13.2 6.2 26.4 9.4 39.5l.1.6c5.7 24.1 11.6 49.1 17.4 73.7.6 2.7.9 5.8.8 9.4-.2 5.3-3.4 8.9-8.9 9.9-.9.1-1.8.2-2.6.3-.7.1-1.3.1-1.9.2-3 .5-4.3 1-5 2.1-1.3 1.8-1.4 4.5-.3 6.9.9 2 2.4 3.3 4 3.6 4.9.6 10.3.2 15-.3 6.5-.7 11.1-4.2 13.6-10.6 1.8-4.4 3-8.3 3.9-11.9 7.4-31.4 14.8-62.9 22-93.5l1.4-5.8c2.3-10 4.8-20.3 6.9-30.5.8-3.7-.7-6.8-4.1-8.3-3.1-1.4-6.2-1.5-8.8-.3-2.5 1.2-4.4 3.6-5.4 6.7-.2.7-.4 1.4-.5 1.9l-12 71.7c-.4 2.4-.8 4.7-1.2 7.1l-1.2 7.2-8-.3-.9-4.4c-.1-.7-.3-1.3-.4-2l-4.5-24.2c-3.6-19.2-7.2-38.5-10.8-57.7-.7-3.7-2.6-5.7-6.1-6.3-1 .1-2.1 0-3.3 0z" fill="#157ee5" data-color="1"/>
        <path d="M366.8 219.4c-5.5 0-11.1-.6-16.6-1.8-15.8-3.5-25-12.6-28.1-27.8-.2-1-.4-1.9-.6-2.7-.7-3.1-1.1-5.1-1.4-10.6 0-.4-.1-1.3-.1-2.4 0-1.2-.1-2.7-.2-4.5-.1-2.2-.1-7.3-.1-9.3v-22c-.1-9.3.4-17.9 1.5-26.2.1-1 .3-1.9.4-2.9.4-2.9 1.3-6 2.6-9.6 4-10.9 12-18 23.6-21.1 11-2.9 22.1-3.3 33.2-1.2 13.9 2.6 23.1 10.8 27.5 24.2 3.9 11.8 4.9 24.4 3.3 38.7-1.1 9.3-7.2 14.8-16.7 14.9-8.9.2-18 .1-26.7.1h-10.7v1.2c0 3.4-.1 6.6.1 9.9.3 5.3.5 10.7 1.4 15.8.6 3.1 2.2 6.8 7 7.1 4.3.3 7.6-2.7 8.6-7.6.2-1.2.4-2.4.5-3.8.1-1.3.3-2.6.5-4 1.3-7.4 7.6-12.9 15.2-13.5 2.7-.2 5.6 0 8.3.5 7.1 1.4 11.4 6.4 12 14 2 23.2-12.8 41.3-35.8 44-2.9.4-5.8.6-8.7.6zm.3-136.5c-5.8 0-11.7.8-17.5 2.3-9.4 2.5-15.5 8-18.8 16.7-1.1 3.1-1.9 5.8-2.2 8.2-.1.9-.3 1.8-.4 2.7-1 8-1.5 16.3-1.5 25.3V160c0 2.1.1 7.1.1 9.1.1 1.8.1 3.4.2 4.6 0 1.1.1 1.9.1 2.3.3 4.9.6 6.6 1.3 9.5.2.8.4 1.7.6 2.8 2.5 12.4 9.8 19.5 22.7 22.3 7.7 1.7 15.4 2.1 22.9 1.2 19.4-2.3 31.3-16.9 29.7-36.4-.4-4.5-2.4-6.9-6.4-7.7-2.1-.4-4.4-.6-6.4-.4-4.4.3-8.1 3.6-8.8 7.7-.2 1.1-.3 2.2-.4 3.5-.1 1.4-.3 2.9-.6 4.5-1.7 8.5-8.1 13.8-16 13.3-7-.5-12-5.3-13.4-12.9-1-5.5-1.3-11.2-1.5-16.7-.2-3.5-.1-6.8-.1-10.4v-8.1h17.7c8.7 0 17.8 0 26.6-.1 6.1-.1 9.1-2.8 9.8-8.7 1.5-13.3.6-24.9-3-35.7-3.6-10.9-10.8-17.3-22.2-19.4-4.1-1-8.3-1.4-12.5-1.4zm16 51.5h-32.6l.2-3.7c.1-2 .1-4 0-6.1-.1-4.9-.2-9.9 1.5-15 2.4-6.9 7.7-10.6 14.9-10.5 7.2.1 12.4 3.9 14.5 10.7.8 2.6 1.3 5.3 1.4 7.9.1 3.1.1 6 .1 9.2v7.5zm-25.4-7.1H376v-.5c0-3.1.1-5.9-.1-8.8-.1-2-.5-4.1-1.1-6.1-1.2-3.9-3.7-5.7-7.9-5.8-4.2-.1-6.8 1.8-8.1 5.7-1.3 3.9-1.3 8.2-1.2 12.6.1 1 .1 2 .1 2.9z" fill="#157ee5" data-color="1"/>
        <path d="M366.8 220.4c-5.6 0-11.2-.6-16.9-1.9-16.3-3.6-25.7-12.9-28.9-28.6-.2-1-.4-1.9-.6-2.6-.7-3.2-1.1-5.2-1.4-10.8 0-.4-.1-1.3-.1-2.5s-.1-2.7-.2-4.5c-.1-2.2-.1-7.3-.1-9.3v-22c-.1-9.4.4-18 1.5-26.4.1-1 .3-1.9.4-2.9.4-2.9 1.3-6.1 2.6-9.8 4.1-11.2 12.3-18.5 24.3-21.7 11.1-2.9 22.4-3.4 33.6-1.2 14.3 2.7 23.8 11.1 28.3 24.8 3.9 11.9 5 24.7 3.3 39.2-1.1 9.9-7.6 15.6-17.7 15.8-8.9.2-18 .1-26.8.1h-9.7v.2c0 3.4-.1 6.6.1 9.8.3 5.2.5 10.7 1.4 15.7.7 4 2.7 6.1 6 6.3 3.7.3 6.7-2.4 7.6-6.8.2-1.1.3-2.4.5-3.7.1-1.3.3-2.7.5-4.1 1.4-7.8 8-13.7 16.1-14.3 2.8-.2 5.8 0 8.6.6 7.6 1.5 12.1 6.8 12.8 14.9 2 23.8-13.1 42.3-36.7 45.1-2.6.4-5.5.6-8.5.6zm.3-143.5c-6.4 0-12.7.8-19 2.5-11.3 3-19 9.9-22.9 20.4-1.3 3.5-2.1 6.6-2.5 9.4-.1 1-.3 1.9-.4 2.9-1.1 8.3-1.6 16.8-1.5 26.1v22c0 2 .1 7.1.1 9.3.1 1.8.1 3.4.2 4.5 0 1.2.1 2 .1 2.4.3 5.4.7 7.4 1.4 10.5.2.8.4 1.7.6 2.7 3 14.8 12 23.7 27.4 27 8.3 1.8 16.8 2.3 24.9 1.3 22.5-2.7 36.9-20.3 35-43-.6-7.2-4.6-11.8-11.2-13.2-2.7-.5-5.4-.7-8.1-.5-7.2.5-13.1 5.7-14.3 12.7-.2 1.3-.4 2.7-.5 3.9-.1 1.4-.3 2.6-.5 3.9-1.1 5.4-4.9 8.7-9.7 8.4-4.2-.3-7-3.1-7.9-8-.9-5.2-1.2-10.6-1.5-16-.2-3.3-.1-6.5-.1-9.9V154h11.7c8.8 0 17.8 0 26.7-.1 9-.2 14.7-5.3 15.7-14 1.6-14.2.6-26.7-3.2-38.3-4.3-13-13.3-20.9-26.8-23.5-4.6-.8-9.2-1.2-13.7-1.2zm-.3 136.4c-5.1 0-10.2-.6-15.3-1.7-13.4-2.9-20.9-10.3-23.5-23.1-.2-1.1-.4-2-.6-2.8-.7-3-1-4.6-1.3-9.7 0-.4 0-1.2-.1-2.2v-.1c0-1.2-.1-2.8-.2-4.6-.1-2-.1-7-.1-9.1v-22c-.1-9.1.4-17.4 1.5-25.4.1-.9.2-1.8.4-2.8.4-2.5 1.1-5.2 2.3-8.4 3.3-9.1 9.7-14.7 19.4-17.3 10-2.7 20.4-3 30.5-1.1 11.7 2.2 19.2 8.8 22.9 20.1 3.6 10.9 4.6 22.7 3 36.1-.7 6.4-4.2 9.5-10.8 9.6-8.9.2-17.9.1-26.6.1h-16.7v7.1c0 3.6-.1 6.9.1 10.4.3 5.4.5 11.1 1.5 16.5 1.3 7.1 6 11.7 12.5 12.1 7.4.5 13.4-4.5 15-12.5.3-1.5.4-2.9.6-4.4.1-1.2.2-2.4.4-3.5.8-4.6 4.9-8.2 9.7-8.5 2.2-.2 4.5 0 6.7.4 4.5.9 6.8 3.6 7.2 8.6 1.7 20.1-10.5 35.1-30.5 37.5-2.6.6-5.3.7-8 .7zm.3-129.4c-5.7 0-11.5.8-17.2 2.3-9.1 2.4-15 7.7-18.1 16.1-1.1 3-1.8 5.7-2.2 8-.1.9-.3 1.8-.4 2.7-1 7.9-1.5 16.2-1.4 25.1v22c0 2 .1 7 .1 9 .1 1.8.1 3.4.2 4.6v.1c0 1 .1 1.8.1 2.2.3 4.9.6 6.5 1.2 9.3.2.8.4 1.7.6 2.8 2.4 12 9.4 18.8 22 21.6 7.6 1.7 15.2 2.1 22.6 1.2 18.8-2.2 30.4-16.4 28.8-35.4-.3-4.1-2-6.1-5.6-6.8-2.1-.4-4.2-.5-6.2-.4-3.9.3-7.2 3.2-7.9 6.9-.2 1.1-.3 2.2-.4 3.4-.1 1.5-.3 3-.6 4.6-1.8 9-8.6 14.7-17.1 14.1-7.5-.5-12.9-5.7-14.3-13.7-1-5.6-1.3-11.3-1.6-16.8-.2-3.5-.1-6.9-.1-10.4v-9.1h18.7c8.7 0 17.7 0 26.6-.1 5.6-.1 8.2-2.4 8.8-7.8 1.5-13.1.6-24.7-2.9-35.3-3.5-10.6-10.5-16.7-21.4-18.8-4-1-8.2-1.4-12.3-1.4zm17 51.5h-34.7l.2-4.8a60 60 0 0 0 0-6c-.1-5-.2-10.1 1.6-15.4 2.5-7.3 8.2-11.3 15.9-11.2 7.7.1 13.2 4.2 15.4 11.5.8 2.7 1.3 5.5 1.5 8.1.1 3.1.1 6.1.1 9.3v8.5zm-32.6-2h30.6v-6.5c0-3.1.1-6.1-.1-9.1-.1-2.5-.6-5.1-1.4-7.6-2-6.4-6.8-10-13.6-10-6.8-.1-11.8 3.4-14 9.8-1.7 5-1.6 9.9-1.5 14.7 0 2.1.1 4.1 0 6.1v2.6zm25.5-5.1h-20.3v-3.8c-.1-4.5-.2-8.8 1.2-13 1.5-4.4 4.5-6.5 9.1-6.4 4.6.1 7.5 2.2 8.8 6.5.7 2.1 1.1 4.3 1.2 6.4.1 2.9.1 5.8.1 8.9l-.1 1.4zm-18.3-2H375c0-2.9 0-5.6-.1-8.3-.1-1.9-.5-3.9-1.1-5.9-1.1-3.5-3.2-5-6.9-5.1-3.7-.1-6 1.5-7.2 5.1-1.3 3.8-1.2 7.9-1.1 12.3.1.7.1 1.3.1 1.9z" fill="#157ee5" data-color="1"/>
        <path d="M465.2 219.4c-5.3 0-10.5-.6-15.6-1.8-14.8-3.5-24.3-13.4-27.5-28.6-1.4-7-2.3-14.5-2.5-22.4-.4-14.2-.3-28.2.1-41.6.2-6.7 1.2-13.6 2.9-20.6 3.5-14.5 13.2-23.9 27.9-26.9 12.6-2.6 23.7-2.2 34 1.3 17.2 5.9 27.6 22.6 25.3 40.7-.8 6.5-5 11.9-11.1 14.5-6.2 2.6-13.1 1.8-18.4-2.2-3.5-2.6-5.5-6.3-6.1-11.3-.2-1.3-.3-2.7-.4-3.9-.1-1.7-.2-3.3-.5-4.8-.7-3.5-2.9-5.5-6.6-5.8-3.5-.3-5.8 1.2-7.2 4.7l-3.3-1.3 3.3 1.3c-2 4.9-2.1 10.3-2.2 16v1c-.1 4.3-.1 8.8-.1 13.1v5.8c0 3.3.2 19.8.9 30.2.2 2.6 1 5.4 2.4 8.8 1 2.3 2.5 3.8 6.8 3.4 3-.3 4.7-1.7 5.4-4.3.5-2 .7-4 .9-6.3.1-1.4.3-2.8.5-4.1.4-2.4.8-5.1 1.5-7.7 2.1-7.1 6.9-11.2 13.9-11.8 10.8-.9 15.8 4.5 18.2 9.2 2.8 5.7 2.7 11.5 2.2 16.4-1.4 12.6-6 22.2-14.2 29.3-5.5 4.7-12.3 7.7-20.4 8.9-3.5.6-6.8.8-10.1.8zm.7-136.5c-4.4 0-9.1.5-14 1.5-12.1 2.5-19.6 9.8-22.5 21.7-1.6 6.5-2.5 12.9-2.7 19.1-.4 13.2-.4 27.1-.1 41.2.2 7.4 1 14.5 2.3 21.1 2.6 12.5 10.1 20.3 22.2 23.2 7.5 1.8 15.2 2.1 23 1 6.8-1 12.3-3.4 16.8-7.3 6.8-5.9 10.7-13.9 11.8-24.7.4-3.9.6-8.5-1.5-12.5-1.3-2.6-3.9-5.9-11.3-5.3-4.1.3-6.4 2.4-7.7 6.7-.6 2.2-1 4.5-1.3 6.8-.2 1.3-.3 2.5-.4 3.8-.2 2.4-.5 4.8-1.1 7.3-1.4 5.6-5.6 9.1-11.6 9.7-8.5.8-12.3-3.7-14-7.6-1.8-4.1-2.7-7.7-3-11.1-.7-10.6-.9-27.4-.9-30.7v-5.7c0-4.3 0-8.8.1-13.3v-1c.1-6 .3-12.3 2.7-18.4 2.5-6.4 7.8-9.7 14.4-9.2 6.8.6 11.6 4.9 12.9 11.5.4 1.9.5 3.8.6 5.6.1 1.2.2 2.3.3 3.5.4 3.1 1.5 5.2 3.3 6.6 3.3 2.5 7.6 3 11.5 1.3 3.8-1.6 6.3-4.9 6.9-8.9 1.9-14.8-6.6-28.4-20.6-33.2-4.9-1.8-10.3-2.7-16.1-2.7z" fill="#157ee5" data-color="1"/>
        <path d="M465.2 220.4c-5.3 0-10.7-.6-15.8-1.8-15.2-3.6-25-13.8-28.2-29.4-1.5-7-2.3-14.6-2.5-22.5-.4-14.2-.3-28.2.1-41.6.2-6.8 1.2-13.7 2.9-20.8 3.6-14.9 13.6-24.5 28.7-27.7 12.8-2.7 24.1-2.2 34.5 1.3 17.7 6 28.4 23.2 26 41.8-.9 6.9-5.3 12.6-11.7 15.3-6.5 2.8-13.8 1.9-19.4-2.3-3.7-2.7-5.8-6.7-6.5-12-.2-1.4-.3-2.8-.4-4-.1-1.7-.2-3.2-.5-4.7-.6-3.1-2.5-4.7-5.7-5-3-.3-5 1-6.2 4.1-1.9 4.8-2 10-2.1 15.6v1c-.1 4.3-.1 8.8-.1 13.1v5.8c0 3.3.2 19.8.9 30.2.2 2.4.9 5.2 2.3 8.5.7 1.7 1.7 3.2 5.8 2.8 2.6-.2 4-1.3 4.5-3.6.5-1.9.7-3.9.9-6.1.1-1.4.3-2.8.5-4.2.4-2.4.8-5.1 1.5-7.8 2.2-7.5 7.3-11.9 14.7-12.5 11.3-.9 16.7 4.8 19.1 9.7 3 5.9 2.8 11.9 2.3 17-1.4 12.9-6.1 22.6-14.6 29.9-5.6 4.9-12.7 7.9-20.9 9.1-3.3.6-6.8.8-10.1.8zm.8-143.5c-4.9 0-9.9.6-15.3 1.7-14.3 3-23.7 12.1-27.2 26.2-1.7 6.9-2.6 13.7-2.8 20.3-.4 13.4-.5 27.3-.1 41.5.2 7.8 1 15.3 2.5 22.2 3.1 14.8 12.3 24.4 26.7 27.8 8.2 1.9 16.8 2.3 25.3 1.1 7.9-1.1 14.6-4.1 19.9-8.7 8-6.9 12.6-16.3 13.9-28.6.5-4.8.7-10.4-2.1-15.9-2.2-4.4-7-9.5-17.2-8.6-6.6.5-11 4.4-13 11.1-.7 2.6-1.1 5.2-1.5 7.6-.2 1.4-.3 2.7-.5 4.1-.2 2.2-.4 4.4-.9 6.4-.8 3.1-2.9 4.8-6.3 5.1-4.1.4-6.5-.8-7.8-4-1.5-3.5-2.3-6.5-2.5-9.1-.7-10.4-.9-27-.9-30.3V141c0-4.3 0-8.7.1-13.1v-1c.1-5.4.2-10.5 1.9-15.4l-2.4-.9.7-1.9 2.4.9c1.6-3.3 4.2-4.8 7.8-4.4 4.1.4 6.7 2.6 7.5 6.6.3 1.6.4 3.2.5 4.9.1 1.3.2 2.6.4 3.9.6 4.8 2.5 8.2 5.7 10.6 5.1 3.8 11.6 4.5 17.4 2 5.8-2.5 9.7-7.6 10.5-13.7 2.3-17.7-7.8-34-24.6-39.7-5.7-1.9-11.7-2.9-18.1-2.9zm-.8 136.5c-4.8 0-9.6-.6-14.2-1.7-12.5-3-20.3-11-22.9-23.9-1.4-6.6-2.2-13.8-2.4-21.3-.4-14.1-.3-28 .1-41.2.2-6.3 1.1-12.8 2.7-19.3 3-12.3 10.8-19.8 23.3-22.5 5-1 9.7-1.6 14.2-1.6 5.9 0 11.3.9 16.6 2.7 14.5 4.9 23.2 19 21.2 34.2-.6 4.3-3.3 8-7.5 9.7-4.2 1.8-8.8 1.2-12.4-1.4-2.1-1.6-3.3-3.9-3.7-7.2-.2-1.2-.2-2.3-.3-3.5-.1-1.9-.3-3.7-.6-5.6-1.2-6.1-5.7-10.1-12-10.7-6.1-.5-11 2.6-13.4 8.5-2.4 5.9-2.5 12.1-2.6 18.1v1c-.1 4.5-.1 8.9-.1 13.3v5.8c0 3.3.2 20.1.9 30.7.2 3.2 1.2 6.8 2.9 10.8 1.5 3.6 5 7.8 12.9 7 5.5-.5 9.4-3.8 10.7-8.9.6-2.4.8-4.8 1.1-7.1.1-1.3.3-2.6.4-3.8.3-2.3.7-4.7 1.3-6.9 1.4-4.8 4-7 8.5-7.4 8.9-.7 11.4 4.2 12.2 5.9 2.1 4.3 2 9 1.6 13.1-1.2 11-5.2 19.3-12.2 25.3-4.7 4-10.3 6.5-17.3 7.5-2.9.2-6 .4-9 .4zm.7-129.5c-4.3 0-9 .5-13.8 1.5-11.7 2.4-19 9.5-21.8 21-1.6 6.4-2.4 12.8-2.6 18.9-.4 13.2-.4 27.1-.1 41.1.2 7.4 1 14.4 2.3 20.9 2.5 12.1 9.7 19.6 21.4 22.4 7.4 1.7 15 2.1 22.6 1 6.6-1 11.9-3.3 16.3-7 6.6-5.7 10.4-13.6 11.5-24 .4-3.8.6-8.1-1.4-11.9-1.3-2.5-3.6-5.3-10.3-4.8-3.7.3-5.6 2-6.8 6-.6 2.1-.9 4.4-1.3 6.6-.2 1.2-.3 2.5-.4 3.7-.2 2.5-.5 4.9-1.1 7.5-1.5 6-6 9.8-12.5 10.4-9.1.9-13.2-4-15-8.3-1.8-4.2-2.8-7.9-3-11.4-.7-10.6-.9-27.5-.9-30.8v-5.8c0-4.3 0-8.8.1-13.3v-1c.1-6.1.3-12.5 2.8-18.7 2.7-6.8 8.3-10.4 15.4-9.8 7.3.6 12.4 5.2 13.8 12.3.4 2 .5 3.9.6 5.8.1 1.2.2 2.3.3 3.4.4 2.8 1.3 4.7 2.9 5.9 3 2.3 7 2.7 10.5 1.2 3.4-1.5 5.8-4.5 6.3-8.1 1.8-14.3-6.3-27.5-19.9-32.1-5-1.7-10.2-2.6-15.9-2.6z" fill="#157ee5" data-color="1"/>
        <path d="M607.3 254.5c-8.1 0-14.1-3.9-16.4-10.7-1.2-3.4-1.8-7.1-1.8-10.6-.1-45.4-.1-90.1 0-135.7 0-2.5.2-4.9.7-7.1 1.9-9.4 8.5-14.6 18-14.3 8.1.2 14 4.6 16.4 11.9 7.8-9.1 19.8-13.5 31.6-11.2 10 1.9 17.2 7.8 21.6 17.3 3.4 7.5 5.2 15.8 5.3 24.8.2 18.9.2 38.4 0 58.1-.1 8.5-1.8 16.5-5 23.8-6.1 13.9-17.9 20.3-34.3 18.4-7.2-.8-13.2-3.5-17.9-8v.9c0 7 0 14.1-.1 21.2-.1 3.7-.7 7.4-1.7 10.5-2.3 6.7-8.3 10.7-16.4 10.7zM607.1 83c-5.7 0-9.2 2.9-10.4 8.7-.4 1.8-.6 3.7-.6 5.7 0 45.6-.1 90.3 0 135.7 0 2.8.5 5.7 1.4 8.4 1.3 3.9 4.6 5.9 9.7 5.9 3.5 0 8.1-1 9.7-6 .8-2.5 1.3-5.4 1.4-8.5.1-7 .1-14.2.1-21.1V198l5.1-.1 1.4 1.1c.3.3.7.7 1 1.2 4.1 7 10.1 10.8 18.3 11.8 13.4 1.5 22.2-3.1 27.1-14.2 2.8-6.5 4.3-13.6 4.4-21.1.3-19.6.3-39.1 0-57.9-.1-8-1.7-15.3-4.7-21.9-3.4-7.5-8.8-11.9-16.5-13.4-11.1-2.1-22.4 3.2-28.1 13.4-.2.3-.4.7-.6 1.1l-5.8 10.1-1.5-12.5c-.1-1.2-.3-2.2-.4-3.3-1-6-4.5-9.2-10.4-9.3h-.6zm12.8 121.1zm16.7-7.8c-4.5 0-9.1-2.1-11.7-5.5-3-3.9-4.7-8.5-5.5-14.5-.7-5.3-1-9.7-1-13.8 0-14.4.2-26.3.5-37.5.2-5.9 1.5-11.4 4.1-16.2 3.8-7.1 9.5-8.5 13.7-8.5 6.1.1 10.5 3.1 12.1 8.3 1.6 5.2 2.5 9.8 2.9 14.3.4 5.6.5 11.2.7 17 0 2.4.1 4.8.2 7.3v.2c-.1 2.5-.1 5.1-.2 7.7-.1 6.5-.3 13.1-.6 19.8-.2 4-1.1 8.3-2.5 12.4-1.7 4.9-5.5 8.2-10.3 8.9-.9.1-1.6.1-2.4.1zm-.2-88.9c-3.2 0-5.5 1.5-7.2 4.7-2 3.8-3.1 8.3-3.3 13.1-.3 11.2-.5 23-.5 37.3 0 3.8.3 7.9.9 12.9.6 4.8 1.9 8.3 4.1 11.1 1.5 1.9 4.6 3 7.3 2.6 2.3-.4 3.9-1.8 4.8-4.3 1.2-3.5 2-7.1 2.1-10.5.4-6.5.5-13.1.6-19.5.1-2.6.1-5.1.2-7.6-.1-2.4-.1-4.9-.2-7.2-.1-5.7-.2-11.2-.6-16.6-.3-3.9-1.1-8-2.6-12.7-.3-.9-1-3.2-5.5-3.3h-.1z" fill="#157ee5" data-color="1"/>
        <path d="M607.3 255.5c-8.6 0-14.9-4.1-17.4-11.4-1.2-3.5-1.8-7.3-1.8-10.9-.1-45.4-.1-90.1 0-135.7 0-2.6.2-5 .7-7.3 2-9.9 9-15.4 19-15.1 7.9.2 13.9 4.2 16.7 11 8.1-8.6 20-12.5 31.4-10.3 10.3 2 17.8 8 22.3 17.9 3.5 7.6 5.3 16.1 5.4 25.2.3 18.9.2 38.4 0 58.1-.1 8.6-1.8 16.8-5.1 24.2-6.2 14.4-18.5 20.9-35.4 19-6.5-.8-12.2-3-16.8-6.8 0 6.6 0 13.3-.1 19.9-.1 3.8-.7 7.6-1.8 10.8-2.2 7.2-8.5 11.4-17.1 11.4zM607.1 77c-8.6 0-14.6 4.9-16.4 13.5-.4 2.2-.7 4.5-.7 6.9 0 45.6-.1 90.3 0 135.7 0 3.4.6 7 1.7 10.3 2.2 6.4 7.8 10 15.4 10 7.7 0 13.3-3.7 15.4-10.1 1-3.1 1.6-6.6 1.7-10.2.1-7.1.1-14.2.1-21.2v-3.2l1.7 1.6c4.6 4.3 10.4 7 17.3 7.8 15.9 1.8 27.5-4.3 33.3-17.8 3.1-7.2 4.8-15.1 4.9-23.5.3-19.7.3-39.2 0-58.1-.1-8.8-1.9-17-5.2-24.4-4.2-9.3-11.3-14.9-20.9-16.8-11.3-2.2-23 2-30.7 10.9l-1.2 1.4-.6-1.7c-2.2-6.9-7.9-11-15.5-11.2.1.1-.1.1-.3.1zm.2 171.4c-7 0-9.7-3.6-10.7-6.6-.9-2.8-1.4-5.8-1.5-8.7-.1-45.4-.1-90.1 0-135.7 0-2.1.2-4.1.6-5.9 1.3-6.4 5.5-9.7 11.9-9.5 6.4.2 10.4 3.7 11.4 10.2.2 1 .3 2.1.4 3.2l1.2 9.6 4.3-7.5c.3-.4.5-.8.6-1.1 5.9-10.5 17.6-16.1 29.1-13.9 8 1.5 13.7 6.1 17.3 13.9 3.1 6.7 4.7 14.2 4.8 22.3.2 18.8.2 38.3 0 57.9-.1 7.7-1.6 14.9-4.5 21.5-5 11.6-14.2 16.4-28.1 14.8-8.5-1-14.8-5-19-12.3-.3-.4-.6-.8-.8-1l-1.1-.8-3.7.1v5.7l1.2-1.3-1.3 1.3v7.2c0 6.9 0 14-.1 21.1-.1 3.1-.5 6.2-1.4 8.7-1.4 4.5-5.1 6.8-10.6 6.8zM607.1 84c-5.3 0-8.3 2.6-9.4 7.9-.4 1.7-.5 3.6-.5 5.5 0 45.6-.1 90.3 0 135.7 0 2.7.5 5.5 1.3 8 1.2 3.5 4.1 5.2 8.8 5.2 4.7 0 7.6-1.8 8.8-5.3.8-2.4 1.3-5.2 1.3-8.2.1-7 .1-14.2.1-21V197l6.4-.1 1.8 1.4c.3.3.8.8 1.2 1.5 3.9 6.7 9.7 10.4 17.6 11.3 12.9 1.5 21.4-3 26-13.6 2.8-6.4 4.2-13.3 4.3-20.7.3-19.6.3-39.1 0-57.9-.1-7.8-1.7-15.1-4.6-21.5-3.3-7.2-8.5-11.4-15.8-12.8-10.7-2.1-21.5 3.1-27 12.9-.2.3-.4.7-.6 1.1l-7.3 12.7-1.9-15.6c-.1-1.2-.2-2.2-.4-3.1-.9-5.6-4-8.3-9.5-8.5-.3-.1-.5-.1-.6-.1zm12.3 120.7l.3-.3-.3.3zm17.2-7.4c-4.9 0-9.8-2.3-12.5-5.9-3.1-4-4.9-8.8-5.7-15-.7-5.4-1-9.8-1-13.9 0-14.4.2-26.3.5-37.5.2-6.1 1.6-11.7 4.2-16.7 3.9-7.4 9.9-9 14.3-9h.3c6.6.1 11.3 3.4 13.1 9 1.6 5.3 2.6 10 2.9 14.5.4 5.7.5 11.2.7 17v.4c0 2.3.1 4.6.2 6.9v.2c-.1 2.6-.1 5.2-.2 7.8-.1 6.5-.3 13.2-.6 19.8-.2 4.1-1.1 8.5-2.6 12.7-1.8 5.3-5.9 8.7-11.1 9.6-.9.1-1.7.1-2.5.1zm-.1-96c-3.9 0-9.1 1.4-12.6 8-2.5 4.7-3.8 10-4 15.8-.3 11.2-.5 23.1-.5 37.5 0 4 .3 8.4 1 13.7.7 5.9 2.4 10.3 5.3 14 2.4 3.1 6.7 5.1 10.9 5.1.7 0 1.4-.1 2.1-.2 4.5-.7 7.9-3.7 9.5-8.3 1.4-4 2.2-8.2 2.5-12.1.4-6.6.5-13.3.6-19.8.1-2.6.1-5.2.2-7.7v-.1c-.1-2.4-.1-4.7-.2-6.9v-.4c-.1-5.8-.2-11.3-.6-16.9-.3-4.3-1.3-8.9-2.8-14-1.5-4.7-5.5-7.5-11.2-7.6-.1-.1-.2-.1-.2-.1zm.1 89c-2.7 0-5.5-1.2-6.9-3.1-2.3-3-3.6-6.7-4.3-11.6-.6-5.1-.9-9.2-.9-13 0-14.3.2-26.1.5-37.3.1-5 1.3-9.6 3.4-13.5 1.9-3.6 4.5-5.3 8.1-5.3h.2c5.2.1 6.1 3 6.4 4 1.5 4.8 2.3 9 2.6 12.9.4 5.5.5 10.9.6 16.7v.1c0 2.4.1 4.7.2 7.1-.1 2.6-.1 5.1-.2 7.7-.1 6.4-.3 13-.6 19.6-.2 3.5-1 7.2-2.2 10.8-1 2.8-2.9 4.5-5.5 4.9-.5-.1-1 0-1.4 0zm-.2-81.9c-2.9 0-4.7 1.3-6.3 4.2-2 3.7-3 8-3.2 12.7-.3 11.2-.5 23-.5 37.3 0 3.7.3 7.8.9 12.8.6 4.6 1.8 8 3.9 10.6 1.2 1.6 4.1 2.6 6.3 2.2 1.9-.3 3.2-1.5 4-3.6 1.2-3.4 1.9-6.9 2.1-10.2.4-6.5.5-13.1.6-19.5.1-2.6.1-5.1.2-7.7-.1-2.3-.1-4.7-.2-7.1v-.1c-.1-5.7-.2-11.1-.6-16.5-.3-3.8-1.1-7.9-2.5-12.5-.3-.8-.8-2.6-4.5-2.6h-.2z" fill="#157ee5" data-color="1"/>
        <path d="M549.6 170.8s-.1 0 0 0c-12.7 0-23.1-10.3-23.1-23 0-6.2 2.4-12 6.9-16.4 4.4-4.4 10.3-6.8 16.4-6.7 12.7.1 23 10.6 23 23.2-.2 12.6-10.5 22.9-23.2 22.9zm-.1-39.2c-4.2 0-8.1 1.7-11.2 4.7-3.1 3.1-4.8 7.1-4.8 11.4 0 8.8 7.2 16 16.1 16 8.8 0 16-7.2 16.1-16 0-8.8-7.1-16.1-16-16.1h-.2z" fill="#157ee5" data-color="1"/>
        <path d="M549.6 171.8c-13.3 0-24.1-10.8-24.1-24 0-6.5 2.5-12.5 7.2-17.2 4.6-4.5 10.6-7 16.9-7h.3c13.3.1 24 11 23.9 24.2-.2 13.2-11 24-24.2 24zm-.1-46.2c-5.8 0-11.2 2.3-15.4 6.4-4.3 4.2-6.6 9.8-6.6 15.7 0 12.1 9.9 22 22.1 22v1-1c12.1 0 22.1-9.9 22.1-22 .1-12.1-9.8-22.1-22-22.2-.1.1-.1.1-.2.1zm.1 39.1c-9.4 0-17.1-7.6-17.1-17 0-4.6 1.8-8.9 5.1-12.1 3.2-3.2 7.5-5 11.9-5h.2c9.4.1 17 7.8 17 17.1-.1 9.4-7.8 17-17.1 17zm-.1-32.1c-3.9 0-7.6 1.6-10.5 4.4-2.9 2.9-4.5 6.7-4.5 10.7 0 8.3 6.8 15 15.1 15s15.1-6.7 15.1-15-6.7-15.1-15-15.1h-.2z" fill="#157ee5" data-color="1"/>
        <path fill="#ffffff" d="M265.5 158.6c0 71.079-57.621 128.7-128.7 128.7-71.079 0-128.7-57.621-128.7-128.7 0-71.079 57.621-128.7 128.7-128.7 71.079 0 128.7 57.621 128.7 128.7z" data-color="2"/>
        <path d="M108.9 165.9h3.8c2.5 0 4.4-1.9 4.4-4.4 0-2.4-1.9-4.4-4.4-4.4H86.5c-2.5 0-4.4 1.9-4.4 4.3 0 2.5 1.9 4.4 4.4 4.4h7.4c-1.7 4.8-.9 8.3 2.2 10.8 2.9 2.3 6.8 2.5 9.9.6 1.5-1 2.7-2.3 3.4-3.9.9-2.4.7-4.9-.5-7.4z" fill="#000000" data-color="3"/>
        <path d="M171.9 161.5c-4.8 0-8.5 3.8-8.5 8.5s3.8 8.5 8.5 8.5c4.9 0 8.8-4.1 8.6-9.1-.3-4.3-4.1-7.9-8.6-7.9z" fill="#000000" data-color="3"/>
        <path d="M156.1 207.4h-37.9c-.6 0-1.1 0-1.7.1-4.9.9-7.9 5.2-7.3 10.3.6 5.2 1.3 10.4 1.5 15.6.3 5.3 4.5 9.6 9.7 9.7h26c4.3 0 9.1-3.4 10.5-7.4 2.1-5.9 4.2-11.9 6.3-17.9.4-1.1.6-2.3.5-3.5-.2-4.1-3.4-6.9-7.6-6.9zm-11.3 28.1c-3.4.1-6.8 0-10.3 0-3.4 0-6.8.1-10.2 0-3.4-.1-5.9-3-5.8-6.2.1-3.6 3-6.2 6.6-6.1 6.1.3 12.3.9 18.4 0 3.7-.5 6.9 2.3 7.1 5.8.1 3.5-2.3 6.3-5.8 6.5z" fill="#000000" data-color="3"/>
        <path d="M267.1 138.7c-2.2-13.7-6.4-26.7-12.7-39.1-6.6-12.9-15.1-24.4-25.4-34.6-10.7-10.4-22.7-18.8-36.2-25.3-.4-.2-.7-.5-.9-.9-3.3-6.6-7.5-12.4-12.9-17.4-14.9-13.6-32.5-19.2-52.5-16-20.6 3.4-35.7 14.9-45.4 33.4-.3.6-.8 1-1.3 1.3C65.4 47 52.7 56.2 41.6 67.7 31.9 77.8 24 89 17.9 101.6 9.7 118.3 5.4 136 4.6 154.5c-.4 11 .5 22 2.9 32.8 5.9 26.7 18.8 49.4 38.6 68.2 10.2 9.7 21.6 17.5 34.3 23.5 24.6 11.5 50.5 15 77.8 10.9 6.1-.9 12.1-2.4 18-4.3 35-11.6 61-33.6 77.9-66 9.8-18.8 14.5-38.9 14.5-60.1v-3.2c0-6-.5-11.8-1.5-17.6zM233.7 169c-7.2 7.3-14.3 14.7-21.5 22-4.9 5.1-9.9 10.1-14.8 15.2-2.2 2.3-3.5 5.5-3.6 8.7-.1 5 0 10 0 15 0 2.9 2.2 5.1 5.1 5.1h30.4c-9.9 12-21.5 21.7-35 29.2s-27.9 12.2-43.2 14C103.5 284 64.7 261.1 44 235h29.9c3.1 0 5.3-2.1 5.3-5.2 0-4.7.1-9.4 0-14.1 0-3.9-1.6-7.6-4.3-10.3-6-6.1-12-12.2-17.9-18.4-5.7-5.8-11.3-11.6-17-17.4-1.6-1.6-2.9-3.3-2.3-6.2.2-1 .8-2 1.5-2.8 4.2-4.9 8.3-9.8 12.6-14.6 4.2-4.7 8.7-9 13.7-12.8 10.2-7.6 21.3-13.3 33.4-17.4.4-.1.7 0 1.1.2 8.1 6 17.1 9.8 27.1 11.3 16.9 2.5 32.3-1.3 46.1-11.2.5-.3.8-.4 1.4-.2 11.8 4 22.7 9.6 32.7 17 3 2.2 5.7 4.7 8.4 7.2 6.7 6.4 12.8 13.5 18.6 20.7 1.8 2.5 1.6 6-.6 8.2z" fill="#000000" data-color="3"/>
        <path d="M186.9 155.4h-26.3c-2.4 0-4.4-2-4.4-4.4 0-2.4 2-4.4 4.4-4.4h26.3c2.4 0 4.4 2 4.4 4.4 0 2.4-2 4.4-4.4 4.4z" fill="#000000" data-color="3"/>
        <path d="M729.2 57.5c-.7-7.5-4.7-11.7-12.1-13-.3 0-.5-.2-.8-.4h-2.8c-.5.1-1 .3-1.5.4-5.7.8-9.4 4-10.9 9.6-.7 2.6-.9 5.3-1 8-.1 45.3 0 90.6 0 135.9 0 2.1.1 4.2.5 6.2 1.2 7.2 6.1 11.4 13.4 11.6 8.2.2 13.2-3.4 14.8-10.9.5-2.5.6-5 .6-7.6V63.1c0-1.9-.1-3.7-.2-5.6z" fill="#000000" data-color="3"/>
        <path d="M834.8 180.9c-.2-20.5-.1-41.1-.1-61.6 0-4.1-.1-8.2-.6-12.2-1.3-12-7.2-20.6-18.9-24.3-12.7-4-25.6-4.7-38.5-1.4-16.7 4.3-26.4 16.6-26.3 32.7 0 4.3 1.9 7.5 5.6 9.6 4.3 2.5 9 3 13.9 2 6.4-1.3 9-4.2 10.1-10.6.4-2.5 1-5 2-7.3 2.3-5.2 6.9-6.4 12-6.4 4.6 0 8 2.1 10 6.2 3 6.1 1.4 13.2-3.8 17.6-1.5 1.3-3.3 2.3-5 3.2-8.7 4.6-17.5 9.1-26.1 13.8-8.6 4.6-15.1 11.2-17.8 20.8-2.9 10.4-3.3 21-.6 31.5 2.5 10.1 8.6 17.4 19 20 4 1 8.4 1.4 12.6 1.1 10.2-.7 18.2-5.4 23-14.7.2-.4.5-.8.7-1.2.1 0 .3.1.4.1 0 .7.1 1.3.1 2 .6 7.8 4.8 12.7 12.2 13.7 2.3.3 4.6.3 6.9 0 8.5-1.2 11.7-6 10.7-14.6-.8-6.6-1.4-13.3-1.5-20zm-30.4-4c-.3 3.5-2.2 7-4.1 10.1-2.8 4.6-8.1 6.7-12.5 5.5-5.1-1.4-6.9-5.4-7.7-10-1.8-10.5.6-19.6 9.8-26 5-3.5 10-7.2 14.9-10.8.4.2.5.3.9.5-.3 10.2-.4 20.5-1.3 30.7z" fill="#000000" data-color="3"/>
        <path d="M928.5 80.9c-8.9-4-17.6 0-20.3 9.3-.2.8-.4 1.6-.6 2.5l-12 71.7c-.6 3.5-1.2 6.9-1.8 10.4h-.4c-.2-.9-.4-1.9-.6-2.8l-15.3-81.9c-1-5.5-4.4-9-9.9-9.9-2.7-.4-5.6-.5-8.3 0-7 1.3-10.7 6.4-10.1 13.5.2 2.4.6 4.7 1.2 7 9 38 18 75.9 26.9 113.9.6 2.7.7 5.5.7 8.2-.1 3.3-1.9 5-5.2 5.5-1.4.2-2.9.3-4.4.5-3.1.5-6.1 1.2-8 4-4.4 6.2-.6 16.6 6.8 17.6 5.3.7 10.7.2 16.1-.3 8.4-.9 14.2-5.6 17.3-13.4 1.6-4.1 3.1-8.2 4.1-12.5 7.6-32.1 15.1-64.2 22.7-96.4 2.6-11.2 5.2-22.3 7.6-33.5 1.4-6-1.3-11.1-6.5-13.4z" fill="#000000" data-color="3"/>
        <path d="M380.3 80.7c-10.6-2-21.2-1.6-31.6 1.2-10.2 2.7-17.5 8.9-21.2 18.9-1.1 2.9-2 5.9-2.4 8.9-.1.9-.3 1.9-.4 2.8-1.1 8.5-1.5 17.1-1.5 25.8v22c0 2.1.1 7.1.1 9.2.1 3.5.2 6.1.2 6.9.4 6.6.9 7.8 1.9 12.8 2.9 14 11.2 22 25.4 25.1 8 1.7 16 2.2 24.1 1.3 21.4-2.5 34.6-18.8 32.8-40.2-.5-6-3.6-9.8-9.2-10.9-2.4-.5-4.9-.7-7.4-.5-5.9.4-11 4.8-12 10.6-.5 2.6-.5 5.3-1 7.9-1.3 6.7-6.3 10.9-12.3 10.4-5.2-.4-9-3.8-10.2-10-1-5.3-1.2-10.8-1.5-16.3-.2-4.8 0-9.7 0-14.7h3c12.6 0 25.3.1 37.9-.1 7.8-.1 12.3-4.1 13.2-11.8 1.5-12.6.9-25.1-3.1-37.2-3.9-12.4-12.3-19.7-24.8-22.1zm-.8 50.2h-25.4c.3-6.8-.9-13.6 1.4-20.1 1.9-5.5 5.8-8.2 11.5-8.1 5.6.1 9.5 2.8 11.2 8.3.7 2.3 1.2 4.7 1.3 7 .2 4.1 0 8.3 0 12.9z" fill="#000000" data-color="3"/>
        <path d="M456.2 109.6c2-5 5.8-7.4 10.8-6.9 5.2.5 8.7 3.5 9.7 8.7.6 2.9.5 6 .9 8.9.5 3.5 1.8 6.7 4.7 8.9 9.2 6.8 22.5 1.3 23.9-10 2.1-16.3-7.4-31.7-22.9-36.9-10.6-3.6-21.4-3.4-32.2-1.2-13.4 2.8-22 11.1-25.2 24.3-1.6 6.5-2.6 13.2-2.8 19.8-.4 13.8-.4 27.6-.1 41.4.2 7.3.9 14.6 2.4 21.7 2.8 13.6 11 22.6 24.8 25.9 8 1.9 16.2 2.2 24.3 1 6.9-1 13.3-3.5 18.6-8.1 8.2-7.1 11.9-16.4 13-27 .5-4.9.5-9.9-1.8-14.5-2.7-5.4-7.7-7.8-14.7-7.2-5.5.5-9.1 3.4-10.8 9.2-.7 2.3-1 4.8-1.4 7.2-.5 3.6-.6 7.2-1.5 10.7-1 4.2-4.1 6.6-8.5 7-5 .5-8.5-1.1-10.4-5.5-1.3-3.1-2.4-6.6-2.7-9.9-.7-10.1-.9-26.6-.9-30.5 0-6.3-.1-12.6 0-19 .5-6 .5-12.2 2.8-18z" fill="#000000" data-color="3"/>
        <path d="M674.1 95.4c-3.6-7.9-9.5-13.5-19.1-15.3-12.7-2.4-25.5 3.9-31.8 15.2-.3.5-.6 1.1-1.1 2-.3-2.1-.4-3.8-.7-5.4-1.2-7.7-6.2-12.1-13.8-12.3-7.7-.2-12.8 3.8-14.4 11.5-.4 2.1-.6 4.3-.6 6.4 0 45.2-.1 90.5 0 135.7 0 3.2.6 6.5 1.6 9.5 1.9 5.5 6.6 8.3 13.1 8.3 6.4 0 11.2-2.8 13-8.4 1-3 1.5-6.3 1.5-9.5.2-9.8.1-19.6.1-29.4v-2.2h.5l.5.5c4.7 8 11.8 12.5 20.9 13.5 13.6 1.6 24.8-2.8 30.7-16.3 3.1-7.2 4.6-14.8 4.7-22.5.2-19.3.3-38.7 0-58-.1-8-1.7-15.9-5.1-23.3zm-25.9 79.2c-.2 3.9-1.1 7.8-2.3 11.5-3.3 9.3-14.3 7.7-18.2 2.6-2.9-3.8-4.2-8.2-4.8-12.8-.6-4.4-1-8.9-.9-13.3 0-12.5.1-24.9.5-37.4.1-5.1 1.3-10.1 3.7-14.7 2.2-4.2 5.5-6.7 10.5-6.6 4.2.1 7.6 1.8 8.8 5.8 1.3 4.4 2.4 8.9 2.7 13.5.6 7.9.6 15.8.8 24.1-.3 8.8-.3 18.1-.8 27.3z" fill="#000000" data-color="3"/>
        <path d="M549.7 128.1c-10.7-.1-19.8 8.9-19.7 19.6 0 10.7 8.8 19.5 19.6 19.5s19.6-8.7 19.6-19.5c0-10.6-8.8-19.5-19.5-19.6z" fill="#000000" data-color="3"/>
    </g>
</svg>
